<svg xmlns="http://www.w3.org/2000/svg" width="24" height="24" fill="none"><path fill="#030305" d="M12 2C6.5 2 2 6.5 2 12s4.5 10 10 10 10-4.5 10-10S17.5 2 12 2Zm0 19.334c-5.134 0-9.334-4.2-9.334-9.334 0-5.134 4.2-9.334 9.334-9.334 5.134 0 9.334 4.2 9.334 9.334 0 5.134-4.2 9.334-9.334 9.334Z"/><path fill="#030305" d="M13.334 14.334A1.337 1.337 0 0 0 12 13a1.337 1.337 0 0 0-1.334 1.334A1.337 1.337 0 0 0 12 15.666a1.338 1.338 0 0 0 1.334-1.332ZM12 15a.669.669 0 0 1-.666-.666c0-.367.3-.668.666-.668.367 0 .666.3.666.668 0 .366-.3.666-.666.666Zm1-3a1.337 1.337 0 0 0 1.334 1.334A1.337 1.337 0 0 0 15.666 12a1.338 1.338 0 0 0-1.332-1.334A1.337 1.337 0 0 0 13 12Zm2 0c0 .367-.3.666-.666.666a.669.669 0 0 1-.668-.666c0-.367.3-.666.668-.666.366 0 .666.3.666.666Zm-4.334-2.334A1.337 1.337 0 0 0 12 11a1.337 1.337 0 0 0 1.334-1.334A1.337 1.337 0 0 0 12 8.334a1.337 1.337 0 0 0-1.334 1.332ZM12 9c.367 0 .666.3.666.666 0 .367-.3.668-.666.668a.669.669 0 0 1-.666-.668c0-.366.3-.666.666-.666Zm-2.334 1.666A1.337 1.337 0 0 0 8.334 12a1.337 1.337 0 0 0 1.332 1.334A1.337 1.337 0 0 0 11 12a1.337 1.337 0 0 0-1.334-1.334Zm0 2A.669.669 0 0 1 9 12c0-.367.3-.666.666-.666.367 0 .668.3.668.666 0 .367-.3.666-.668.666Zm-6-1.933c.934.4 1.934.6 2.934.6h.834c.166 0 .3-.1.3-.233a4.388 4.388 0 0 1 3.3-3.3.325.325 0 0 0 .266-.334v-.832c0-1.034-.2-2-.6-2.934-.066-.134-.2-.234-.366-.2-3.434.666-6.2 3.434-6.868 6.867-.032.166.068.3.2.366ZM10.233 4.2c.267.766.433 1.566.433 2.4v.566a5.01 5.01 0 0 0-3.5 3.5H6.6a6.512 6.512 0 0 1-2.4-.433c.666-2.967 3.066-5.367 6.033-6.033Zm2.7 3.566a4.389 4.389 0 0 1 3.3 3.3.325.325 0 0 0 .334.268h.833c1 0 2-.2 2.9-.634.133-.066.233-.2.2-.366-.666-3.434-3.433-6.2-6.867-6.868-.166-.032-.3.068-.366.2a7.45 7.45 0 0 0-.6 2.934v.834c0 .166.1.3.267.332Zm.434-1.132c0-.834.133-1.634.433-2.4a7.988 7.988 0 0 1 6 6c-.767.266-1.567.432-2.4.432h-.566c-.468-1.7-1.8-3.032-3.467-3.466v-.566Zm-2.267 9.6a4.389 4.389 0 0 1-3.3-3.3.325.325 0 0 0-.334-.268h-.832c-1.034 0-2 .2-2.934.6-.134.068-.234.2-.2.367.666 3.434 3.434 6.2 6.867 6.867h.066c.133 0 .233-.067.334-.166a7.45 7.45 0 0 0 .6-2.934v-.833c0-.167-.1-.3-.267-.334Zm-.466 1.132c0 .834-.134 1.634-.434 2.4a7.988 7.988 0 0 1-6-6 8.293 8.293 0 0 1 2.366-.466h.568a5.01 5.01 0 0 0 3.5 3.5v.566Zm9.7-4.133a7.449 7.449 0 0 0-2.934-.6h-.833c-.167 0-.3.1-.334.267a4.388 4.388 0 0 1-3.3 3.3.325.325 0 0 0-.267.334v.832c0 1.034.2 2 .6 2.934.034.133.168.2.3.2.034 0 .067 0 .1-.034 3.434-.666 6.2-3.433 6.867-6.866.034-.166-.067-.3-.2-.367ZM13.767 19.8c-.267-.767-.433-1.567-.433-2.4v-.566c1.7-.468 3.032-1.8 3.466-3.467h.566c.834 0 1.634.133 2.4.433a7.988 7.988 0 0 1-6 6Z"/></svg>