<svg xmlns="http://www.w3.org/2000/svg" width="24" height="24" fill="none"><path fill="#030305" d="M10.623 10.428a2.82 2.82 0 0 0-2.817 2.816 2.82 2.82 0 0 0 2.817 2.817 2.82 2.82 0 0 0 2.816-2.817 2.82 2.82 0 0 0-2.816-2.816Zm0 4.829a2.015 2.015 0 0 1-2.013-2.013c0-1.11.903-2.012 2.013-2.012 1.11 0 2.012.903 2.012 2.012 0 1.11-.903 2.013-2.012 2.013Z"/><path fill="#030305" d="M10.623 9.164c-2.25 0-4.08 1.83-4.08 4.08s1.83 4.08 4.08 4.08 4.08-1.83 4.08-4.08-1.83-4.08-4.08-4.08Zm0 7.356a3.28 3.28 0 0 1-3.276-3.276 3.28 3.28 0 0 1 3.276-3.275 3.28 3.28 0 0 1 3.275 3.275 3.28 3.28 0 0 1-3.275 3.276Z"/><path fill="#030305" d="M21.598 6.774h-.896a5.285 5.285 0 0 0-.352-.85l.634-.633a.402.402 0 0 0 0-.569l-1.706-1.706a.402.402 0 0 0-.569 0l-.634.634a5.304 5.304 0 0 0-.848-.352v-.896A.402.402 0 0 0 16.825 2h-2.413a.402.402 0 0 0-.402.402v.896a5.31 5.31 0 0 0-.849.352l-.634-.634a.402.402 0 0 0-.569 0l-1.605 1.606h-.92a.402.402 0 0 0-.402.402v1.07c-.205.045-.407.099-.606.161l-.534-.926a.402.402 0 0 0-.55-.147l-2.06 1.19a.402.402 0 0 0-.147.55l.535.927a7.403 7.403 0 0 0-.442.442L4.3 7.755a.402.402 0 0 0-.549.148l-1.19 2.06a.402.402 0 0 0 .147.55l.926.534a7.333 7.333 0 0 0-.161.605h-1.07a.402.402 0 0 0-.402.402v2.38c0 .222.18.402.402.402h1.07c.045.204.099.406.161.605l-.926.535a.402.402 0 0 0-.147.55l1.19 2.06a.402.402 0 0 0 .55.147l.927-.535c.141.153.289.3.442.442l-.535.927a.402.402 0 0 0 .147.55l2.06 1.19a.402.402 0 0 0 .55-.148l.534-.925c.2.062.401.116.606.161v1.07c0 .222.18.402.402.402h2.38c.221 0 .401-.18.401-.402v-1.07c.204-.045.407-.1.605-.162l.535.926a.402.402 0 0 0 .55.148l2.06-1.19a.402.402 0 0 0 .147-.55l-.535-.927c.153-.141.3-.29.442-.442l.927.535a.402.402 0 0 0 .55-.147l1.19-2.06a.402.402 0 0 0-.148-.55l-.925-.535c.062-.199.116-.4.161-.605h1.07c.222 0 .402-.18.402-.402v-.657a.417.417 0 0 0 .033-.03l1.706-1.705a.402.402 0 0 0 0-.569l-.634-.634c.141-.272.26-.556.352-.849h.896c.222 0 .402-.18.402-.402V7.176a.402.402 0 0 0-.402-.402Zm-3.157 7.258h-.998a.402.402 0 0 0-.396.333c-.067.383-.167.76-.3 1.121a.402.402 0 0 0 .177.487l.863.498L17 17.836l-.866-.5a.402.402 0 0 0-.509.09 6.569 6.569 0 0 1-.82.82.402.402 0 0 0-.09.51l.499.865-1.364.788-.499-.863a.402.402 0 0 0-.486-.177 6.491 6.491 0 0 1-1.121.3.402.402 0 0 0-.334.396v.998H9.835v-.998a.402.402 0 0 0-.334-.397 6.491 6.491 0 0 1-1.12-.299.402.402 0 0 0-.487.177l-.498.863-1.365-.788.5-.865a.402.402 0 0 0-.09-.51 6.578 6.578 0 0 1-.821-.82.402.402 0 0 0-.51-.09l-.865.5-.787-1.365.863-.498a.402.402 0 0 0 .177-.487 6.492 6.492 0 0 1-.3-1.12.402.402 0 0 0-.396-.334h-.998v-1.575h.998c.196 0 .363-.141.396-.334.067-.382.167-.76.3-1.12a.402.402 0 0 0-.177-.487l-.863-.499.787-1.364.866.5c.169.097.384.059.509-.09.248-.297.524-.573.82-.821a.402.402 0 0 0 .09-.51l-.499-.865 1.365-.787.498.863c.098.169.303.243.486.176a6.496 6.496 0 0 1 1.121-.299.402.402 0 0 0 .334-.396v-.998h1.575v.998c0 .195.14.363.334.396.382.066.76.167 1.12.3a.402.402 0 0 0 .487-.177l.498-.863 1.365.787-.5.865a.402.402 0 0 0 .09.51c.297.248.573.524.821.82.125.15.34.188.51.09L17 8.653l.787 1.364-.863.499a.402.402 0 0 0-.177.486c.133.362.233.739.3 1.121.033.193.2.334.396.334h.998v1.575Zm2.755-4.846h-.798a.402.402 0 0 0-.39.304 4.487 4.487 0 0 1-.502 1.212.402.402 0 0 0 .06.49l.565.565-.886.886v-.588a.402.402 0 0 0-.402-.403h-1.07a7.304 7.304 0 0 0-.161-.605l.926-.534a.402.402 0 0 0 .147-.55l-1.19-2.06a.402.402 0 0 0-.55-.148l-.927.536a7.377 7.377 0 0 0-.442-.442l.535-.928a.402.402 0 0 0-.147-.55l-2.06-1.189a.402.402 0 0 0-.55.147l-.534.926a7.31 7.31 0 0 0-.606-.162v-1.07a.402.402 0 0 0-.402-.401h-.322l.753-.753.564.565c.13.13.333.155.49.06.38-.226.788-.395 1.213-.502a.402.402 0 0 0 .304-.39v-.798h1.609v.798c0 .184.125.345.304.39.425.107.833.276 1.212.503.158.094.36.069.49-.061l.565-.565 1.137 1.137-.565.565a.402.402 0 0 0-.06.49c.226.378.395.786.502 1.213a.402.402 0 0 0 .39.304h.798v1.608Z"/></svg>