<svg xmlns="http://www.w3.org/2000/svg" width="24" height="24" fill="none"><path fill="#030305" d="M21.72 15.896a24.539 24.539 0 0 0-3.6-1.136c-.182-2.215-1.113-4.208-2.554-5.408l2.887-2.835a.31.31 0 0 0 .106-.241.31.31 0 0 0-.106-.241l-.983-.966a.344.344 0 0 0-.492 0l-3.054 3.01a1.103 1.103 0 0 1-.036-.286v-.586c.842-.483 1.404-1.38 1.404-2.38V4.76C15.292 3.24 14.028 2 12.482 2c-1.545 0-2.809 1.241-2.809 2.759l.001.034v.035c0 .965.561 1.896 1.404 2.379v.586c0 .38-.246.759-.632.931-1.976.97-3.356 3.301-3.566 5.989a21.55 21.55 0 0 0-3.67 1.218c-.105.035-.21.138-.21.276s.035.241.14.31l1.405.931c.106.07.211.07.316.035.69-.226 1.357-.424 2.007-.594.047 1.94.427 3.681 1.084 4.939a.37.37 0 0 0 .316.172h1.756c.106 0 .281-.069.316-.172.035-.104.07-.242 0-.345-.421-.793-.632-1.931-.667-3.345a15.393 15.393 0 0 1 5.62 0c-.036 1.414-.246 2.552-.668 3.345a.308.308 0 0 0 0 .345c.07.103.21.172.316.172h1.756c.14 0 .246-.069.281-.172.659-1.26 1.04-3.005 1.084-4.95.662.172 1.34.374 2.042.605.035.034.07.034.105.034.07 0 .14-.034.176-.103l1.405-.931c.105-.07.14-.173.14-.31 0-.104-.105-.242-.21-.276Zm-4.355-1.31a25.58 25.58 0 0 0-4.354-.506c-.741-.025-1.48-.019-2.21.02l4.28-4.203c1.265 1.034 2.108 2.758 2.284 4.69Zm-5.79-7.961-.005-.004a2.076 2.076 0 0 1-1.183-1.65v-.005a2.007 2.007 0 0 1-.011-.207c0-1.138.948-2.07 2.107-2.07 1.159 0 2.107.932 2.072 2.07 0 .793-.457 1.517-1.194 1.862a.482.482 0 0 0-.086.054 2.12 2.12 0 0 1-1.7-.05Zm-.813 2.65c.632-.31 1.018-.896 1.018-1.55v-.296a2.837 2.837 0 0 0 1.37.008v.287c0 .276.105.586.246.828l-5.76 5.655c.316-2.242 1.51-4.138 3.126-4.931Zm5.725 12.035h-1.019c.351-.896.527-2.069.527-3.448a.337.337 0 0 0-.281-.345c-2.037-.448-4.39-.448-6.462 0a.337.337 0 0 0-.281.345c0 1.38.175 2.552.526 3.448H8.48c-.562-1.172-.878-2.758-.913-4.551.14-.035.246-.07.386-.104 3.056-.655 5.795-.655 8.815-.034.211.034.422.103.633.138-.035 1.793-.351 3.379-.913 4.551Zm3.687-4.517c-2.49-.8-4.7-1.242-6.88-1.329-1.815-.08-3.602.083-5.517.502-.211.068-.457.103-.668.172l-.017.008c-.733.181-1.485.396-2.266.647l-.737-.483c.984-.418 2.09-.747 3.205-.985a.12.12 0 0 1 .026.02c.035-.035.07-.035.105-.035a.117.117 0 0 1 .022-.017l.084-.017a.774.774 0 0 0 .175-.104l6.392-6.241a.37.37 0 0 0 .078-.111l3.048-2.992.492.482-8.148 8c-.106.104-.14.242-.07.38s.21.207.35.207l.015-.002.02.002a25.61 25.61 0 0 1 4.65-.015c.91.085 1.818.22 2.714.402.145.03.29.062.434.095h.014c1.085.242 2.15.553 3.182.931l-.703.483Z"/></svg>